<svg width="1920" height="3240" viewBox="0 0 1920 3240" fill="none" xmlns="http://www.w3.org/2000/svg">
<g clip-path="url(#clip0_1740_4552)">
<path d="M191 120H190V131H191V120Z" fill="#D9D9D9"/>
<path d="M185 125V126H196V125H185Z" fill="#D9D9D9"/>
<path d="M411 120H410V131H411V120Z" fill="#D9D9D9"/>
<path d="M405 125V126H416V125H405Z" fill="#D9D9D9"/>
<path d="M631 120H630V131H631V120Z" fill="#D9D9D9"/>
<path d="M625 125V126H636V125H625Z" fill="#D9D9D9"/>
<path d="M851 120H850V131H851V120Z" fill="#D9D9D9"/>
<path d="M845 125V126H856V125H845Z" fill="#D9D9D9"/>
<path d="M1071 120H1070V131H1071V120Z" fill="#D9D9D9"/>
<path d="M1065 125V126H1076V125H1065Z" fill="#D9D9D9"/>
<path d="M1291 120H1290V131H1291V120Z" fill="#D9D9D9"/>
<path d="M1285 125V126H1296V125H1285Z" fill="#D9D9D9"/>
<path d="M1511 120H1510V131H1511V120Z" fill="#D9D9D9"/>
<path d="M1505 125V126H1516V125H1505Z" fill="#D9D9D9"/>
<path d="M1731 120H1730V131H1731V120Z" fill="#D9D9D9"/>
<path d="M1725 125V126H1736V125H1725Z" fill="#D9D9D9"/>
<path d="M191 350H190V361H191V350Z" fill="#D9D9D9"/>
<path d="M185 355V356H196V355H185Z" fill="#D9D9D9"/>
<path d="M411 350H410V361H411V350Z" fill="#D9D9D9"/>
<path d="M405 355V356H416V355H405Z" fill="#D9D9D9"/>
<path d="M631 350H630V361H631V350Z" fill="#D9D9D9"/>
<path d="M625 355V356H636V355H625Z" fill="#D9D9D9"/>
<path d="M851 350H850V361H851V350Z" fill="#D9D9D9"/>
<path d="M845 355V356H856V355H845Z" fill="#D9D9D9"/>
<path d="M1071 350H1070V361H1071V350Z" fill="#D9D9D9"/>
<path d="M1065 355V356H1076V355H1065Z" fill="#D9D9D9"/>
<path d="M1291 350H1290V361H1291V350Z" fill="#D9D9D9"/>
<path d="M1285 355V356H1296V355H1285Z" fill="#D9D9D9"/>
<path d="M1511 350H1510V361H1511V350Z" fill="#D9D9D9"/>
<path d="M1505 355V356H1516V355H1505Z" fill="#D9D9D9"/>
<path d="M1731 350H1730V361H1731V350Z" fill="#D9D9D9"/>
<path d="M1725 355V356H1736V355H1725Z" fill="#D9D9D9"/>
<path d="M191 580H190V591H191V580Z" fill="#D9D9D9"/>
<path d="M185 585V586H196V585H185Z" fill="#D9D9D9"/>
<path d="M411 580H410V591H411V580Z" fill="#D9D9D9"/>
<path d="M405 585V586H416V585H405Z" fill="#D9D9D9"/>
<path d="M631 580H630V591H631V580Z" fill="#D9D9D9"/>
<path d="M625 585V586H636V585H625Z" fill="#D9D9D9"/>
<path d="M851 580H850V591H851V580Z" fill="#D9D9D9"/>
<path d="M845 585V586H856V585H845Z" fill="#D9D9D9"/>
<path d="M1071 580H1070V591H1071V580Z" fill="#D9D9D9"/>
<path d="M1065 585V586H1076V585H1065Z" fill="#D9D9D9"/>
<path d="M1291 580H1290V591H1291V580Z" fill="#D9D9D9"/>
<path d="M1285 585V586H1296V585H1285Z" fill="#D9D9D9"/>
<path d="M1511 580H1510V591H1511V580Z" fill="#D9D9D9"/>
<path d="M1505 585V586H1516V585H1505Z" fill="#D9D9D9"/>
<path d="M1731 580H1730V591H1731V580Z" fill="#D9D9D9"/>
<path d="M1725 585V586H1736V585H1725Z" fill="#D9D9D9"/>
<path d="M191 810H190V821H191V810Z" fill="#D9D9D9"/>
<path d="M185 815V816H196V815H185Z" fill="#D9D9D9"/>
<path d="M411 810H410V821H411V810Z" fill="#D9D9D9"/>
<path d="M405 815V816H416V815H405Z" fill="#D9D9D9"/>
<path d="M631 810H630V821H631V810Z" fill="#D9D9D9"/>
<path d="M625 815V816H636V815H625Z" fill="#D9D9D9"/>
<path d="M851 810H850V821H851V810Z" fill="#D9D9D9"/>
<path d="M845 815V816H856V815H845Z" fill="#D9D9D9"/>
<path d="M1071 810H1070V821H1071V810Z" fill="#D9D9D9"/>
<path d="M1065 815V816H1076V815H1065Z" fill="#D9D9D9"/>
<path d="M1291 810H1290V821H1291V810Z" fill="#D9D9D9"/>
<path d="M1285 815V816H1296V815H1285Z" fill="#D9D9D9"/>
<path d="M1511 810H1510V821H1511V810Z" fill="#D9D9D9"/>
<path d="M1505 815V816H1516V815H1505Z" fill="#D9D9D9"/>
<path d="M1731 810H1730V821H1731V810Z" fill="#D9D9D9"/>
<path d="M1725 815V816H1736V815H1725Z" fill="#D9D9D9"/>
<path d="M191 1040H190V1051H191V1040Z" fill="#D9D9D9"/>
<path d="M185 1045V1046H196V1045H185Z" fill="#D9D9D9"/>
<path d="M411 1040H410V1051H411V1040Z" fill="#D9D9D9"/>
<path d="M405 1045V1046H416V1045H405Z" fill="#D9D9D9"/>
<path d="M631 1040H630V1051H631V1040Z" fill="#D9D9D9"/>
<path d="M625 1045V1046H636V1045H625Z" fill="#D9D9D9"/>
<path d="M851 1040H850V1051H851V1040Z" fill="#D9D9D9"/>
<path d="M845 1045V1046H856V1045H845Z" fill="#D9D9D9"/>
<path d="M1071 1040H1070V1051H1071V1040Z" fill="#D9D9D9"/>
<path d="M1065 1045V1046H1076V1045H1065Z" fill="#D9D9D9"/>
<path d="M1291 1040H1290V1051H1291V1040Z" fill="#D9D9D9"/>
<path d="M1285 1045V1046H1296V1045H1285Z" fill="#D9D9D9"/>
<path d="M1511 1040H1510V1051H1511V1040Z" fill="#D9D9D9"/>
<path d="M1505 1045V1046H1516V1045H1505Z" fill="#D9D9D9"/>
<path d="M1731 1040H1730V1051H1731V1040Z" fill="#D9D9D9"/>
<path d="M1725 1045V1046H1736V1045H1725Z" fill="#D9D9D9"/>
<path d="M191 1270H190V1281H191V1270Z" fill="#D9D9D9"/>
<path d="M185 1275V1276H196V1275H185Z" fill="#D9D9D9"/>
<path d="M411 1270H410V1281H411V1270Z" fill="#D9D9D9"/>
<path d="M405 1275V1276H416V1275H405Z" fill="#D9D9D9"/>
<path d="M631 1270H630V1281H631V1270Z" fill="#D9D9D9"/>
<path d="M625 1275V1276H636V1275H625Z" fill="#D9D9D9"/>
<path d="M851 1270H850V1281H851V1270Z" fill="#D9D9D9"/>
<path d="M845 1275V1276H856V1275H845Z" fill="#D9D9D9"/>
<path d="M1071 1270H1070V1281H1071V1270Z" fill="#D9D9D9"/>
<path d="M1065 1275V1276H1076V1275H1065Z" fill="#D9D9D9"/>
<path d="M1291 1270H1290V1281H1291V1270Z" fill="#D9D9D9"/>
<path d="M1285 1275V1276H1296V1275H1285Z" fill="#D9D9D9"/>
<path d="M1511 1270H1510V1281H1511V1270Z" fill="#D9D9D9"/>
<path d="M1505 1275V1276H1516V1275H1505Z" fill="#D9D9D9"/>
<path d="M1731 1270H1730V1281H1731V1270Z" fill="#D9D9D9"/>
<path d="M1725 1275V1276H1736V1275H1725Z" fill="#D9D9D9"/>
<path d="M191 1500H190V1511H191V1500Z" fill="#D9D9D9"/>
<path d="M185 1505V1506H196V1505H185Z" fill="#D9D9D9"/>
<path d="M411 1500H410V1511H411V1500Z" fill="#D9D9D9"/>
<path d="M405 1505V1506H416V1505H405Z" fill="#D9D9D9"/>
<path d="M631 1500H630V1511H631V1500Z" fill="#D9D9D9"/>
<path d="M625 1505V1506H636V1505H625Z" fill="#D9D9D9"/>
<path d="M851 1500H850V1511H851V1500Z" fill="#D9D9D9"/>
<path d="M845 1505V1506H856V1505H845Z" fill="#D9D9D9"/>
<path d="M1071 1500H1070V1511H1071V1500Z" fill="#D9D9D9"/>
<path d="M1065 1505V1506H1076V1505H1065Z" fill="#D9D9D9"/>
<path d="M1291 1500H1290V1511H1291V1500Z" fill="#D9D9D9"/>
<path d="M1285 1505V1506H1296V1505H1285Z" fill="#D9D9D9"/>
<path d="M1511 1500H1510V1511H1511V1500Z" fill="#D9D9D9"/>
<path d="M1505 1505V1506H1516V1505H1505Z" fill="#D9D9D9"/>
<path d="M1731 1500H1730V1511H1731V1500Z" fill="#D9D9D9"/>
<path d="M1725 1505V1506H1736V1505H1725Z" fill="#D9D9D9"/>
<path d="M191 1730H190V1741H191V1730Z" fill="#D9D9D9"/>
<path d="M185 1735V1736H196V1735H185Z" fill="#D9D9D9"/>
<path d="M411 1730H410V1741H411V1730Z" fill="#D9D9D9"/>
<path d="M405 1735V1736H416V1735H405Z" fill="#D9D9D9"/>
<path d="M631 1730H630V1741H631V1730Z" fill="#D9D9D9"/>
<path d="M625 1735V1736H636V1735H625Z" fill="#D9D9D9"/>
<path d="M851 1730H850V1741H851V1730Z" fill="#D9D9D9"/>
<path d="M845 1735V1736H856V1735H845Z" fill="#D9D9D9"/>
<path d="M1071 1730H1070V1741H1071V1730Z" fill="#D9D9D9"/>
<path d="M1065 1735V1736H1076V1735H1065Z" fill="#D9D9D9"/>
<path d="M1291 1730H1290V1741H1291V1730Z" fill="#D9D9D9"/>
<path d="M1285 1735V1736H1296V1735H1285Z" fill="#D9D9D9"/>
<path d="M1511 1730H1510V1741H1511V1730Z" fill="#D9D9D9"/>
<path d="M1505 1735V1736H1516V1735H1505Z" fill="#D9D9D9"/>
<path d="M1731 1730H1730V1741H1731V1730Z" fill="#D9D9D9"/>
<path d="M1725 1735V1736H1736V1735H1725Z" fill="#D9D9D9"/>
<path d="M191 1960H190V1971H191V1960Z" fill="#D9D9D9"/>
<path d="M185 1965V1966H196V1965H185Z" fill="#D9D9D9"/>
<path d="M411 1960H410V1971H411V1960Z" fill="#D9D9D9"/>
<path d="M405 1965V1966H416V1965H405Z" fill="#D9D9D9"/>
<path d="M631 1960H630V1971H631V1960Z" fill="#D9D9D9"/>
<path d="M625 1965V1966H636V1965H625Z" fill="#D9D9D9"/>
<path d="M851 1960H850V1971H851V1960Z" fill="#D9D9D9"/>
<path d="M845 1965V1966H856V1965H845Z" fill="#D9D9D9"/>
<path d="M1071 1960H1070V1971H1071V1960Z" fill="#D9D9D9"/>
<path d="M1065 1965V1966H1076V1965H1065Z" fill="#D9D9D9"/>
<path d="M1291 1960H1290V1971H1291V1960Z" fill="#D9D9D9"/>
<path d="M1285 1965V1966H1296V1965H1285Z" fill="#D9D9D9"/>
<path d="M1511 1960H1510V1971H1511V1960Z" fill="#D9D9D9"/>
<path d="M1505 1965V1966H1516V1965H1505Z" fill="#D9D9D9"/>
<path d="M1731 1960H1730V1971H1731V1960Z" fill="#D9D9D9"/>
<path d="M1725 1965V1966H1736V1965H1725Z" fill="#D9D9D9"/>
<path d="M191 2190H190V2201H191V2190Z" fill="#D9D9D9"/>
<path d="M185 2195V2196H196V2195H185Z" fill="#D9D9D9"/>
<path d="M411 2190H410V2201H411V2190Z" fill="#D9D9D9"/>
<path d="M405 2195V2196H416V2195H405Z" fill="#D9D9D9"/>
<path d="M631 2190H630V2201H631V2190Z" fill="#D9D9D9"/>
<path d="M625 2195V2196H636V2195H625Z" fill="#D9D9D9"/>
<path d="M851 2190H850V2201H851V2190Z" fill="#D9D9D9"/>
<path d="M845 2195V2196H856V2195H845Z" fill="#D9D9D9"/>
<path d="M1071 2190H1070V2201H1071V2190Z" fill="#D9D9D9"/>
<path d="M1065 2195V2196H1076V2195H1065Z" fill="#D9D9D9"/>
<path d="M1291 2190H1290V2201H1291V2190Z" fill="#D9D9D9"/>
<path d="M1285 2195V2196H1296V2195H1285Z" fill="#D9D9D9"/>
<path d="M1511 2190H1510V2201H1511V2190Z" fill="#D9D9D9"/>
<path d="M1505 2195V2196H1516V2195H1505Z" fill="#D9D9D9"/>
<path d="M1731 2190H1730V2201H1731V2190Z" fill="#D9D9D9"/>
<path d="M1725 2195V2196H1736V2195H1725Z" fill="#D9D9D9"/>
<path d="M191 2420H190V2431H191V2420Z" fill="#D9D9D9"/>
<path d="M185 2425V2426H196V2425H185Z" fill="#D9D9D9"/>
<path d="M411 2420H410V2431H411V2420Z" fill="#D9D9D9"/>
<path d="M405 2425V2426H416V2425H405Z" fill="#D9D9D9"/>
<path d="M631 2420H630V2431H631V2420Z" fill="#D9D9D9"/>
<path d="M625 2425V2426H636V2425H625Z" fill="#D9D9D9"/>
<path d="M851 2420H850V2431H851V2420Z" fill="#D9D9D9"/>
<path d="M845 2425V2426H856V2425H845Z" fill="#D9D9D9"/>
<path d="M1071 2420H1070V2431H1071V2420Z" fill="#D9D9D9"/>
<path d="M1065 2425V2426H1076V2425H1065Z" fill="#D9D9D9"/>
<path d="M1291 2420H1290V2431H1291V2420Z" fill="#D9D9D9"/>
<path d="M1285 2425V2426H1296V2425H1285Z" fill="#D9D9D9"/>
<path d="M1511 2420H1510V2431H1511V2420Z" fill="#D9D9D9"/>
<path d="M1505 2425V2426H1516V2425H1505Z" fill="#D9D9D9"/>
<path d="M1731 2420H1730V2431H1731V2420Z" fill="#D9D9D9"/>
<path d="M1725 2425V2426H1736V2425H1725Z" fill="#D9D9D9"/>
<path d="M191 2650H190V2661H191V2650Z" fill="#D9D9D9"/>
<path d="M185 2655V2656H196V2655H185Z" fill="#D9D9D9"/>
<path d="M411 2650H410V2661H411V2650Z" fill="#D9D9D9"/>
<path d="M405 2655V2656H416V2655H405Z" fill="#D9D9D9"/>
<path d="M631 2650H630V2661H631V2650Z" fill="#D9D9D9"/>
<path d="M625 2655V2656H636V2655H625Z" fill="#D9D9D9"/>
<path d="M851 2650H850V2661H851V2650Z" fill="#D9D9D9"/>
<path d="M845 2655V2656H856V2655H845Z" fill="#D9D9D9"/>
<path d="M1071 2650H1070V2661H1071V2650Z" fill="#D9D9D9"/>
<path d="M1065 2655V2656H1076V2655H1065Z" fill="#D9D9D9"/>
<path d="M1291 2650H1290V2661H1291V2650Z" fill="#D9D9D9"/>
<path d="M1285 2655V2656H1296V2655H1285Z" fill="#D9D9D9"/>
<path d="M1511 2650H1510V2661H1511V2650Z" fill="#D9D9D9"/>
<path d="M1505 2655V2656H1516V2655H1505Z" fill="#D9D9D9"/>
<path d="M1731 2650H1730V2661H1731V2650Z" fill="#D9D9D9"/>
<path d="M1725 2655V2656H1736V2655H1725Z" fill="#D9D9D9"/>
<path d="M191 2880H190V2891H191V2880Z" fill="#D9D9D9"/>
<path d="M185 2885V2886H196V2885H185Z" fill="#D9D9D9"/>
<path d="M411 2880H410V2891H411V2880Z" fill="#D9D9D9"/>
<path d="M405 2885V2886H416V2885H405Z" fill="#D9D9D9"/>
<path d="M631 2880H630V2891H631V2880Z" fill="#D9D9D9"/>
<path d="M625 2885V2886H636V2885H625Z" fill="#D9D9D9"/>
<path d="M851 2880H850V2891H851V2880Z" fill="#D9D9D9"/>
<path d="M845 2885V2886H856V2885H845Z" fill="#D9D9D9"/>
<path d="M1071 2880H1070V2891H1071V2880Z" fill="#D9D9D9"/>
<path d="M1065 2885V2886H1076V2885H1065Z" fill="#D9D9D9"/>
<path d="M1291 2880H1290V2891H1291V2880Z" fill="#D9D9D9"/>
<path d="M1285 2885V2886H1296V2885H1285Z" fill="#D9D9D9"/>
<path d="M1511 2880H1510V2891H1511V2880Z" fill="#D9D9D9"/>
<path d="M1505 2885V2886H1516V2885H1505Z" fill="#D9D9D9"/>
<path d="M1731 2880H1730V2891H1731V2880Z" fill="#D9D9D9"/>
<path d="M1725 2885V2886H1736V2885H1725Z" fill="#D9D9D9"/>
<path d="M191 3110H190V3121H191V3110Z" fill="#D9D9D9"/>
<path d="M185 3115V3116H196V3115H185Z" fill="#D9D9D9"/>
<path d="M411 3110H410V3121H411V3110Z" fill="#D9D9D9"/>
<path d="M405 3115V3116H416V3115H405Z" fill="#D9D9D9"/>
<path d="M631 3110H630V3121H631V3110Z" fill="#D9D9D9"/>
<path d="M625 3115V3116H636V3115H625Z" fill="#D9D9D9"/>
<path d="M851 3110H850V3121H851V3110Z" fill="#D9D9D9"/>
<path d="M845 3115V3116H856V3115H845Z" fill="#D9D9D9"/>
<path d="M1071 3110H1070V3121H1071V3110Z" fill="#D9D9D9"/>
<path d="M1065 3115V3116H1076V3115H1065Z" fill="#D9D9D9"/>
<path d="M1291 3110H1290V3121H1291V3110Z" fill="#D9D9D9"/>
<path d="M1285 3115V3116H1296V3115H1285Z" fill="#D9D9D9"/>
<path d="M1511 3110H1510V3121H1511V3110Z" fill="#D9D9D9"/>
<path d="M1505 3115V3116H1516V3115H1505Z" fill="#D9D9D9"/>
<path d="M1731 3110H1730V3121H1731V3110Z" fill="#D9D9D9"/>
<path d="M1725 3115V3116H1736V3115H1725Z" fill="#D9D9D9"/>
<rect x="0.5" y="0.5" width="1919" height="3239" stroke="white" stroke-opacity="0.15"/>
</g>
<defs>
<clipPath id="clip0_1740_4552">
<rect width="1920" height="3240" fill="white"/>
</clipPath>
</defs>
</svg>
